<svg width="120" height="98" viewBox="0 0 120 98" fill="none" xmlns="http://www.w3.org/2000/svg">
<g opacity="0.8">
<path d="M11.5571 34.6298C38.3739 6.02535 81.6261 6.02535 108.443 34.6298C110.945 37.2989 115.163 37.458 117.864 34.9852C120.565 32.5123 120.726 28.3439 118.224 25.6748C86.1301 -8.55826 33.8699 -8.55826 1.77629 25.6748C-0.726013 28.3439 -0.565026 32.5123 2.13587 34.9852C4.83676 37.458 9.05478 37.2989 11.5571 34.6298Z" fill="#99CBFF"/>
<path d="M29.335 53.5907C46.3334 35.4591 73.6669 35.4591 90.6653 53.5907C93.1676 56.2598 97.3856 56.4189 100.087 53.946C102.787 51.4732 102.948 47.3048 100.446 44.6357C78.1709 20.8755 41.8294 20.8755 19.5542 44.6357C17.0519 47.3048 17.2129 51.4732 19.9138 53.946C22.6147 56.4189 26.8327 56.2598 29.335 53.5907Z" fill="#99CBFF"/>
<path d="M47.1129 72.5559C54.2929 64.8973 65.7077 64.8973 72.8876 72.5559C75.39 75.225 79.608 75.3841 82.3089 72.9113C85.0098 70.4384 85.1708 66.27 82.6684 63.6009C70.2117 50.3137 49.7889 50.3137 37.3321 63.6009C34.8298 66.27 34.9908 70.4384 37.6917 72.9113C40.3926 75.3841 44.6106 75.225 47.1129 72.5559Z" fill="#99CBFF"/>
<circle cx="59.9997" cy="87.3334" r="10.6667" fill="#99CBFF"/>
</g>
</svg>
