<svg width="20" height="22" viewBox="0 0 20 22" fill="none" xmlns="http://www.w3.org/2000/svg">
<path d="M5.49995 6.66999V5.69999C5.49995 3.44999 7.30995 1.23999 9.55995 1.02999C10.1851 0.968564 10.8162 1.03871 11.4127 1.23592C12.0091 1.43313 12.5576 1.75303 13.0229 2.17503C13.4883 2.59703 13.8601 3.11178 14.1145 3.68616C14.3689 4.26053 14.5002 4.8818 14.4999 5.50999V6.88999M6.99995 21H12.9999C17.0199 21 17.7399 19.39 17.9499 17.43L18.6999 11.43C18.9699 8.98999 18.2699 6.99999 13.9999 6.99999H5.99995C1.72995 6.99999 1.02995 8.98999 1.29995 11.43L2.04995 17.43C2.25995 19.39 2.97995 21 6.99995 21Z" stroke="white" stroke-width="1.5" stroke-miterlimit="10" stroke-linecap="round" stroke-linejoin="round"/>
</svg>
