<svg width="24" height="24" viewBox="0 0 24 24" fill="none" xmlns="http://www.w3.org/2000/svg">
<path d="M7.125 6.375H16.875C17.4717 6.375 18.044 6.61205 18.466 7.03401C18.8879 7.45597 19.125 8.02826 19.125 8.625V15.375C19.125 15.9717 18.8879 16.544 18.466 16.966C18.044 17.3879 17.4717 17.625 16.875 17.625H7.125C6.52826 17.625 5.95597 17.3879 5.53401 16.966C5.11205 16.544 4.875 15.9717 4.875 15.375V8.625C4.875 8.02826 5.11205 7.45597 5.53401 7.03401C5.95597 6.61205 6.52826 6.375 7.125 6.375ZM7.125 7.125C6.75 7.125 6.42 7.2525 6.165 7.4775L12 11.25L17.835 7.4775C17.58 7.2525 17.25 7.125 16.875 7.125H7.125ZM12 12.1575L5.7225 8.085C5.6625 8.25 5.625 8.4375 5.625 8.625V15.375C5.625 15.7728 5.78304 16.1544 6.06434 16.4357C6.34564 16.717 6.72718 16.875 7.125 16.875H16.875C17.2728 16.875 17.6544 16.717 17.9357 16.4357C18.217 16.1544 18.375 15.7728 18.375 15.375V8.625C18.375 8.4375 18.3375 8.25 18.2775 8.085L12 12.1575Z" fill="#42474E"/>
</svg>
