<svg width="24" height="25" viewBox="0 0 24 25" fill="none" xmlns="http://www.w3.org/2000/svg">
<path d="M12.0038 19.265C9.18375 19.265 6.52125 17.615 4.69125 14.75C3.89625 13.5125 3.89625 11.495 4.69125 10.25C6.52875 7.38499 9.19125 5.73499 12.0038 5.73499C14.8163 5.73499 17.4788 7.38499 19.3088 10.25C20.1038 11.4875 20.1038 13.505 19.3088 14.75C17.4788 17.615 14.8163 19.265 12.0038 19.265ZM12.0038 6.85999C9.58125 6.85999 7.26375 8.31499 5.64375 10.8575C5.08125 11.735 5.08125 13.265 5.64375 14.1425C7.26375 16.685 9.58125 18.14 12.0038 18.14C14.4263 18.14 16.7438 16.685 18.3638 14.1425C18.9263 13.265 18.9263 11.735 18.3638 10.8575C16.7438 8.31499 14.4263 6.85999 12.0038 6.85999Z" fill="#42474E"/>
<path d="M12.002 16.832C9.612 16.832 7.672 14.892 7.672 12.502C7.672 10.112 9.612 8.172 12.002 8.172C14.392 8.172 16.332 10.112 16.332 12.502C16.332 14.892 14.392 16.832 12.002 16.832ZM12.002 9.672C10.442 9.672 9.172 10.942 9.172 12.502C9.172 14.062 10.442 15.332 12.002 15.332C13.562 15.332 14.832 14.062 14.832 12.502C14.832 10.942 13.562 9.672 12.002 9.672Z" fill="#42474E"/>
</svg>
