<svg width="24" height="24" viewBox="0 0 24 24" fill="none" xmlns="http://www.w3.org/2000/svg">
<g clip-path="url(#clip0_4403_876)">
<path d="M8.5 10.5V9C8.5 6.5175 9.08333 4.5 12 4.5C14.9167 4.5 15.5 6.5175 15.5 9V10.5M12 16.875C12.3868 16.875 12.7577 16.6775 13.0312 16.3258C13.3047 15.9742 13.4583 15.4973 13.4583 15C13.4583 14.5027 13.3047 14.0258 13.0312 13.6742C12.7577 13.3225 12.3868 13.125 12 13.125C11.6132 13.125 11.2423 13.3225 10.9688 13.6742C10.6953 14.0258 10.5417 14.5027 10.5417 15C10.5417 15.4973 10.6953 15.9742 10.9688 16.3258C11.2423 16.6775 11.6132 16.875 12 16.875Z" stroke="#42474E" stroke-width="1.5" stroke-linecap="round" stroke-linejoin="round"/>
<path d="M14.9167 19.5H9.08335C6.75002 19.5 6.16669 18.75 6.16669 15.75V14.25C6.16669 11.25 6.75002 10.5 9.08335 10.5H14.9167C17.25 10.5 17.8334 11.25 17.8334 14.25V15.75C17.8334 18.75 17.25 19.5 14.9167 19.5Z" stroke="#42474E" stroke-width="1.5" stroke-linecap="round" stroke-linejoin="round"/>
</g>
<defs>
<clipPath id="clip0_4403_876">
<rect width="14" height="18" fill="white" transform="translate(5 3)"/>
</clipPath>
</defs>
</svg>
