<svg width="25" height="24" viewBox="0 0 25 24" fill="none" xmlns="http://www.w3.org/2000/svg">
<path d="M12.52 2.90997C9.20997 2.90997 6.51997 5.59997 6.51997 8.90997V11.8C6.51997 12.41 6.25997 13.34 5.94997 13.86L4.79997 15.77C4.08997 16.95 4.57997 18.26 5.87997 18.7C10.19 20.14 14.84 20.14 19.15 18.7C20.36 18.3 20.89 16.87 20.23 15.77L19.08 13.86C18.78 13.34 18.52 12.41 18.52 11.8V8.90997C18.52 5.60997 15.82 2.90997 12.52 2.90997Z" stroke="white" stroke-width="1.5" stroke-miterlimit="10" stroke-linecap="round"/>
<path d="M14.37 3.2C13.1608 2.85559 11.8793 2.85559 10.67 3.2C10.96 2.46 11.68 1.94 12.52 1.94C13.36 1.94 14.08 2.46 14.37 3.2Z" stroke="white" stroke-width="1.5" stroke-miterlimit="10" stroke-linecap="round" stroke-linejoin="round"/>
<path d="M15.52 19.06C15.52 20.71 14.17 22.06 12.52 22.06C11.7 22.06 10.94 21.72 10.4 21.18C9.83818 20.6173 9.52181 19.8552 9.52002 19.06" stroke="white" stroke-width="1.5" stroke-miterlimit="10"/>
</svg>
