<svg width="24" height="24" viewBox="0 0 24 24" fill="none" xmlns="http://www.w3.org/2000/svg">
<path d="M11.6562 10.9654C11.7691 10.9554 11.8922 10.9554 11.9949 10.9654C13.2021 10.9442 14.3513 10.4566 15.1896 9.60984C16.0279 8.76311 16.4866 7.62662 16.4648 6.45039C16.443 5.27415 15.9426 4.15452 15.0735 3.3378C14.2044 2.52108 13.0379 2.07417 11.8306 2.09539C9.30572 2.09539 7.27346 4.08539 7.27346 6.53539C7.27011 7.68384 7.72571 8.78847 8.54375 9.61535C9.3618 10.4422 10.4781 10.9264 11.6562 10.9654Z" stroke="#42474E" stroke-width="1.5" stroke-linecap="round" stroke-linejoin="round"/>
<path d="M6.8629 20.5254C4.37903 18.9154 4.37903 16.2754 6.8629 14.6554C9.69575 12.8254 14.3248 12.8254 17.1371 14.6554C19.621 16.2654 19.621 18.9054 17.1371 20.5254C14.3145 22.3654 9.68548 22.3654 6.8629 20.5254Z" stroke="#42474E" stroke-width="1.5" stroke-linecap="round" stroke-linejoin="round"/>
</svg>
